<?xml version="1.0" encoding="UTF-8" standalone="no"?>
<!-- Created with Inkscape (http://www.inkscape.org/) -->

<svg
   width="64"
   height="64"
   viewBox="0 0 16.933333 16.933333"
   version="1.1"
   id="svg1"
   xml:space="preserve"
   inkscape:version="1.3 (0e150ed6c4, 2023-07-21)"
   sodipodi:docname="babel_fish.svg"
   xmlns:inkscape="http://www.inkscape.org/namespaces/inkscape"
   xmlns:sodipodi="http://sodipodi.sourceforge.net/DTD/sodipodi-0.dtd"
   xmlns="http://www.w3.org/2000/svg"
   xmlns:svg="http://www.w3.org/2000/svg"><sodipodi:namedview
     id="namedview1"
     pagecolor="#ffffff"
     bordercolor="#666666"
     borderopacity="1.0"
     inkscape:showpageshadow="2"
     inkscape:pageopacity="0.0"
     inkscape:pagecheckerboard="0"
     inkscape:deskcolor="#d1d1d1"
     inkscape:document-units="px"
     inkscape:zoom="2.8970539"
     inkscape:cx="-17.431502"
     inkscape:cy="20.538106"
     inkscape:window-width="1920"
     inkscape:window-height="1009"
     inkscape:window-x="1272"
     inkscape:window-y="-8"
     inkscape:window-maximized="1"
     inkscape:current-layer="layer1" /><defs
     id="defs1" /><g
     inkscape:label="Calque 1"
     inkscape:groupmode="layer"
     id="layer1"><path
       style="fill:#51782c;fill-opacity:1;stroke:#000000;stroke-width:0.264583px;stroke-linecap:square;stroke-linejoin:miter;stroke-opacity:1"
       d="M 7.7936003,3.5127903 10.39646,2.5081772 12.108868,5.7046712 Z"
       id="path2-0"
       sodipodi:nodetypes="cccc" /><path
       style="fill:#51782c;fill-opacity:1;stroke:#000000;stroke-width:0.264583px;stroke-linecap:square;stroke-linejoin:miter;stroke-opacity:1"
       d="m 7.0062283,12.339288 3.1964947,1.050277 1.712408,-3.196494 z"
       id="path2-2-1"
       sodipodi:nodetypes="cccc" /><path
       id="path1-1"
       style="fill:#76b041;fill-opacity:1;stroke:#000000;stroke-width:0.223903;stroke-linecap:square;stroke-linejoin:miter;stroke-dasharray:none;stroke-opacity:1"
       d="M 11.893722,5.7809363 C 9.6242539,3.6183269 4.4897856,0.12729848 2.1201562,6.8496712 L 1.0877294,5.1391728 C 0.98903142,4.8809556 0.45475992,4.2701847 0.35209262,5.3014015 c 0.3513684,2.0340955 0.2203312,3.5820275 0,5.0332135 0.1026673,1.031218 0.6369392,0.420445 0.73563678,0.162228 L 2.1201562,8.9684828 c 3.6938914,5.3524502 5.814522,3.8249822 9.7735658,1.0687352 0.561254,1.13125 1.523298,3.116948 1.587551,3.156616 0,0 2.719766,2.020272 2.830683,1.952269 -1.189821,-7.2101907 -1.053279,-8.0650359 0,-14.47353311 0,0 -2.534653,1.15655351 -2.605953,1.23143601 -1.067708,1.1213518 -1.658751,3.7315172 -1.812281,3.8769304 z"
       sodipodi:nodetypes="ccccccccsccsc" /><path
       id="path1-1-6"
       style="fill:#000000;fill-opacity:0.05238095;stroke:none;stroke-width:0.223903;stroke-linecap:square;stroke-linejoin:miter;stroke-dasharray:none;stroke-opacity:1"
       d="M 15.829524 3.7000325 C 15.076229 4.1609308 13.609566 6.5653549 12.851412 7.2651895 C 12.011887 8.0401361 11.914868 7.9757238 8.2661619 8.9121173 C 4.6174556 9.848511 2.3891682 7.7174414 2.0339843 8.0403359 C 1.8750119 8.1848563 1.2404351 8.2754616 0.55397134 8.3338581 C 0.52484325 9.0402676 0.44853474 9.6984046 0.3519165 10.334769 C 0.45458369 11.365986 0.9890914 10.75525 1.0877889 10.497033 L 2.120284 8.9684446 C 5.8141717 14.320889 7.9348076 12.793357 11.893847 10.037113 C 12.455101 11.168362 13.417094 13.154358 13.481347 13.194026 C 13.481347 13.194026 16.201265 15.213848 16.312182 15.145845 C 15.339843 9.2535702 15.253827 7.6031628 15.829524 3.7000325 z " /><g
       id="g3"
       transform="translate(-9.7264758,5.7080257)"><circle
         style="fill:#ffeeaa;fill-opacity:1;stroke:#000000;stroke-width:0.207164;stroke-linecap:square;stroke-linejoin:round;stroke-dasharray:none;stroke-opacity:1;paint-order:markers fill stroke"
         id="path3"
         cx="14.955507"
         cy="0.057647154"
         r="1.6956611" /><circle
         style="fill:#000000;fill-opacity:1;stroke:none;stroke-width:0.0888645;stroke-linecap:square;stroke-linejoin:round;stroke-dasharray:none;stroke-opacity:1;paint-order:markers fill stroke"
         id="path3-3"
         cx="14.285501"
         cy="0.12222616"
         r="0.72736621" /><circle
         style="fill:#ffffff;fill-opacity:1;stroke:none;stroke-width:0.0356083;stroke-linecap:square;stroke-linejoin:round;stroke-dasharray:none;stroke-opacity:1;paint-order:markers fill stroke"
         id="path3-3-4"
         cx="14.059477"
         cy="-0.17645128"
         r="0.29145837" /></g></g></svg>
