<?xml version="1.0" encoding="UTF-8" standalone="no"?>
<svg
   width="900"
   height="600"
   viewBox="-72 -48 144 96"
   version="1.1"
   id="svg5"
   sodipodi:docname="Flag_of_South_Korea.svg"
   inkscape:version="1.3 (0e150ed6c4, 2023-07-21)"
   xmlns:inkscape="http://www.inkscape.org/namespaces/inkscape"
   xmlns:sodipodi="http://sodipodi.sourceforge.net/DTD/sodipodi-0.dtd"
   xmlns="http://www.w3.org/2000/svg"
   xmlns:svg="http://www.w3.org/2000/svg"
   xmlns:rdf="http://www.w3.org/1999/02/22-rdf-syntax-ns#"
   xmlns:cc="http://creativecommons.org/ns#"
   xmlns:dc="http://purl.org/dc/elements/1.1/">
  <title
     id="title5">Korean flag</title>
  <defs
     id="defs5" />
  <sodipodi:namedview
     id="namedview5"
     pagecolor="#ffffff"
     bordercolor="#666666"
     borderopacity="1.0"
     inkscape:showpageshadow="2"
     inkscape:pageopacity="0.0"
     inkscape:pagecheckerboard="0"
     inkscape:deskcolor="#d1d1d1"
     inkscape:zoom="0.95812969"
     inkscape:cx="423.22037"
     inkscape:cy="350.16136"
     inkscape:window-width="1920"
     inkscape:window-height="1009"
     inkscape:window-x="1272"
     inkscape:window-y="-8"
     inkscape:window-maximized="1"
     inkscape:current-layer="svg5" />
  <path
     fill="#fff"
     d="M-72-48v96H72v-96z"
     id="path1"
     style="fill:#ffffff;fill-opacity:0.65476191" />
  <g
     stroke="#000000"
     stroke-width="4"
     id="g3"
     transform="scale(0.67314667)">
    <path
       transform="rotate(33.690068)"
       d="m -50,-12 v 24 m 6,0 v -24 m 6,0 v 24 m 76,0 V 1 m 0,-2 v -11 m 6,0 v 11 m 0,2 v 11 m 6,0 V 1 m 0,-2 v -11"
       id="path2" />
    <path
       transform="rotate(-33.690068)"
       d="m -50,-12 v 24 m 6,0 V 1 m 0,-2 v -11 m 6,0 v 24 m 76,0 V 1 m 0,-2 v -11 m 6,0 v 24 m 6,0 V 1 m 0,-2 v -11"
       id="path3" />
  </g>
  <g
     transform="matrix(0.56009188,0.37339459,-0.37339459,0.56009188,0,0)"
     id="g5">
    <path
       fill="#cd2e3a"
       d="M 12,0 A 18,18 0 1 1 -24,0 24,24 0 1 1 24,0"
       id="path4" />
    <path
       fill="#0047a0"
       d="M 0,0 A 12,12 0 1 1 24,0 24,24 0 1 1 -24,0 12,12 0 1 0 0,0"
       id="path5" />
  </g>
  <metadata
     id="metadata5">
    <rdf:RDF>
      <cc:Work
         rdf:about="">
        <dc:title>Korean flag</dc:title>
        <dc:creator>
          <cc:Agent>
            <dc:title>Various</dc:title>
          </cc:Agent>
        </dc:creator>
        <dc:source>https://fr.wikipedia.org/wiki/Cor%C3%A9e_du_Sud#/media/Fichier:Flag_of_South_Korea.svg</dc:source>
        <dc:description>[en]&#10;see source&#10;[fr]&#10;voir source</dc:description>
      </cc:Work>
    </rdf:RDF>
  </metadata>
</svg>
